<?xml version="1.0" standalone="no"?>
<!DOCTYPE svg PUBLIC "-//W3C//DTD SVG 20010904//EN"
 "http://www.w3.org/TR/2001/REC-SVG-20010904/DTD/svg10.dtd">
<svg version="1.0" xmlns="http://www.w3.org/2000/svg"
 width="1080.000000pt" height="1080.000000pt" viewBox="0 0 1080.000000 1080.000000"
 preserveAspectRatio="xMidYMid meet">
<metadata>
Created by potrace 1.11, written by Peter Selinger 2001-2013
</metadata>
<g transform="translate(0.000000,1080.000000) scale(0.100000,-0.100000)"
fill="#000000" stroke="none">
<path d="M7750 10484 c-19 -2 -73 -9 -120 -15 -311 -37 -663 -152 -924 -300
-210 -119 -355 -228 -535 -404 -305 -297 -519 -641 -649 -1045 -229 -711 -127
-1509 274 -2136 104 -162 188 -269 329 -413 293 -301 635 -515 1030 -644 139
-46 287 -81 440 -104 167 -24 533 -24 700 0 449 67 862 242 1215 515 117 91
316 287 413 407 315 390 510 871 556 1375 53 564 -97 1152 -413 1629 -183 275
-433 528 -702 709 -315 211 -663 345 -1064 407 -100 16 -471 28 -550 19z m411
-104 c474 -47 885 -207 1269 -494 128 -95 370 -338 463 -463 469 -634 614
-1412 400 -2153 -277 -963 -1099 -1649 -2103 -1755 -456 -49 -902 33 -1335
245 -239 117 -410 237 -604 425 -848 820 -994 2111 -351 3098 103 159 167 236
324 392 194 193 359 315 591 436 260 136 548 226 825 258 52 6 109 13 125 15
69 8 300 5 396 -4z"/>
<path d="M802 10008 l-32 -33 1012 -1012 1013 -1013 -1013 -1013 -1013 -1013
36 -34 36 -34 1012 1012 1012 1012 1012 -1012 1012 -1012 31 29 c16 16 30 34
30 39 0 6 -453 464 -1007 1018 l-1008 1008 1008 1008 c554 554 1007 1010 1007
1015 0 4 -15 21 -32 37 l-33 29 -1010 -1009 -1010 -1010 -1010 1010 c-555 555
-1012 1010 -1015 1010 -3 0 -20 -15 -38 -32z"/>
<path d="M2560 5385 c-477 -61 -918 -244 -1285 -533 -91 -72 -336 -317 -408
-409 -239 -303 -413 -672 -496 -1049 -59 -266 -72 -624 -32 -893 89 -592 367
-1118 805 -1520 667 -612 1628 -823 2487 -545 958 309 1638 1135 1754 2131 92
784 -196 1583 -766 2128 -379 362 -824 582 -1364 676 -155 27 -536 35 -695 14z
m710 -118 c780 -138 1425 -618 1777 -1322 106 -211 191 -481 230 -725 26 -163
26 -569 0 -725 -72 -434 -240 -822 -505 -1160 -90 -114 -319 -335 -445 -429
-266 -198 -557 -338 -864 -416 -187 -47 -438 -80 -611 -80 -109 0 -351 27
-492 56 -353 71 -744 256 -1035 488 -99 80 -284 265 -370 371 -281 346 -466
787 -526 1250 -18 138 -15 459 5 600 63 440 215 811 480 1165 92 124 344 375
471 470 356 267 751 422 1220 480 39 5 171 7 295 5 187 -2 249 -7 370 -28z"/>
<path d="M5887 4922 c-15 -15 -27 -32 -27 -38 0 -5 453 -462 1007 -1016 l1008
-1008 -1013 -1013 -1013 -1013 36 -34 36 -34 1012 1012 1012 1012 1012 -1012
1012 -1012 36 34 36 34 -1013 1013 -1013 1013 1013 1013 1013 1013 -36 34 -36
34 -1012 -1012 -1012 -1012 -1010 1010 c-555 555 -1013 1010 -1016 1010 -3 0
-17 -13 -32 -28z"/>
</g>
</svg>
